<svg xmlns="http://www.w3.org/2000/svg" viewBox="0 0 128 23"><defs><style>.a{fill:#303030;}</style></defs><title>logo-name</title><path class="a" d="M16.78,17.06c-.2,1.07-.93,4.32-1.24,5.39H0v-1c2.88-.2,3.16-.45,3.16-3.36V4.39c0-2.91-.25-3.08-3-3.3v-1h9v1c-2.71.2-3,.37-3,3.3V17.94c0,1.86.17,2.54.79,2.88a7.75,7.75,0,0,0,3.3.45c1.89,0,3.05-.17,3.84-1.07a9.77,9.77,0,0,0,1.75-3.36Z"/><path class="a" d="M29.68,22.85a2.8,2.8,0,0,1-1.61-.65,3.5,3.5,0,0,1-.82-1.55c-1.38.93-3,2.2-4,2.2a4.15,4.15,0,0,1-4.12-4.18c0-1.67.9-2.74,2.77-3.39A24.26,24.26,0,0,0,27.17,13v-.62c0-2.46-1.16-3.87-2.88-3.87a2,2,0,0,0-1.55.68,4.82,4.82,0,0,0-1,2.26,1,1,0,0,1-1,.79,1.66,1.66,0,0,1-1.5-1.47c0-.51.45-.9,1.1-1.38A15.32,15.32,0,0,1,25.46,7,4.51,4.51,0,0,1,28.28,8c1.19,1,1.55,2.4,1.55,4.18v6.39c0,1.55.62,2.06,1.19,2.06a2.64,2.64,0,0,0,1.24-.37l.34.9Zm-2.5-8.65c-.71.37-2.37,1.1-3.08,1.44-1.33.62-2.09,1.27-2.09,2.51a2.51,2.51,0,0,0,2.43,2.63,4.85,4.85,0,0,0,2.74-1.24Z"/><path class="a" d="M56.07,8.32c-1.72.28-2,.68-2.74,2.57-1,2.71-2.54,7.27-4.12,11.93h-1c-1.38-3.7-2.77-7.07-4.18-10.68-1.3,3.43-2.71,6.87-4,10.68H39c-1.24-4.08-2.54-8.14-4-12.24-.62-1.78-.93-2-2.57-2.26V7.46h7.1v.85c-2.06.34-2.23.54-1.72,2.09.79,2.63,1.64,5.35,2.51,8h.06c1.27-3.3,2.54-6.83,4-10.77h.9C46.6,11.2,48,14.84,49.45,18.51h.06c.76-2.37,1.72-5.35,2.34-7.89.45-1.78.23-2-2-2.29V7.48h6.21v.84Z"/><path class="a" d="M65.77,11.49c-.65-2-1.86-3.39-3.53-3.39A2.24,2.24,0,0,0,60,10.47c0,1.55,1.38,2.34,2.91,3,2.57,1.07,4.32,2.29,4.32,4.66,0,3.12-2.91,4.74-5.66,4.74a6.94,6.94,0,0,1-4-1.16,16.64,16.64,0,0,1-.54-4l.9-.17c.62,2.26,2.15,4.26,4.22,4.26a2.39,2.39,0,0,0,2.43-2.4c0-1.5-1-2.34-2.71-3.12-2.06-1-4.29-2.09-4.29-4.74,0-2.4,2.06-4.43,5.22-4.43a7.83,7.83,0,0,1,3.05.59,26.16,26.16,0,0,1,.76,3.67Z"/><path class="a" d="M79.09,22.45v-.9c2-.2,2.26-.48,2.26-2.85V13c0-2.37-.82-3.91-3.12-3.91a6.06,6.06,0,0,0-3.74,1.75v8.06c0,2.34.2,2.46,2.23,2.68v.9H69.29v-.9c2.34-.25,2.51-.42,2.51-2.68v-7.1c0-2.2-.2-2.29-2.06-2.63V8.35a20.38,20.38,0,0,0,4.77-1.41V9.68c.68-.51,1.44-1,2.29-1.61a5.25,5.25,0,0,1,2.85-1c2.71,0,4.43,1.89,4.43,5.22v6.62c0,2.34.17,2.46,2.15,2.68v.9H79.09Z"/><path class="a" d="M103.14,14.68c0,5.52-4,8.17-7.44,8.17a7.44,7.44,0,0,1-7.52-7.58A7.82,7.82,0,0,1,95.7,7,7.44,7.44,0,0,1,103.14,14.68Zm-11.78-.51c0,4.32,1.89,7.55,4.7,7.55,2.12,0,3.87-1.58,3.87-6.28,0-4-1.61-7.27-4.6-7.27C93.22,8.18,91.36,10.3,91.36,14.17Z"/><path class="a" d="M111.93,22.4a3.5,3.5,0,0,1-1.44.45c-2.15,0-3.36-1.38-3.36-4.08V8.8h-2.37l-.14-.34.93-1h1.58V5l2.23-2.26.48.06v4.7h3.87a1,1,0,0,1-.2,1.33h-3.69V17.6c0,2.77,1.13,3.3,2,3.3a4.8,4.8,0,0,0,2.12-.59l.31.9Z"/><path class="a" d="M127.85,19.54c-2.15,2.71-4.53,3.33-5.59,3.33-4.22,0-6.7-3.43-6.7-7.32a8.78,8.78,0,0,1,2.26-6,7,7,0,0,1,5-2.51A5.31,5.31,0,0,1,128,12.27c0,.68-.17,1-.79,1.1s-4.87.45-9,.59c0,4.66,2.71,6.59,5.11,6.59a5.52,5.52,0,0,0,3.91-1.72Zm-9.41-7c1.92,0,3.81,0,5.8-.11.62,0,.82-.2.82-.68a3.15,3.15,0,0,0-3-3.43C120.47,8.32,118.95,9.76,118.44,12.53Z"/></svg>